<svg width="47" height="48" viewBox="0 0 47 48" fill="none" xmlns="http://www.w3.org/2000/svg">
<path d="M28.9028 42.3552H26.1654C25.4025 42.3552 24.7852 41.7225 24.7852 40.9405C24.7852 40.1585 25.4025 39.5258 26.1654 39.5258H28.9028C31.1524 39.5258 33.0529 37.4689 33.0529 35.0329V29.6466C33.0529 28.8646 33.6702 28.2319 34.4332 28.2319C35.1961 28.2319 35.8134 28.8646 35.8134 29.6466V35.0329C35.8111 39.0021 32.6483 42.3552 28.9028 42.3552Z" fill="url(#paint0_linear_712_13)"/>
<path d="M20.6562 42.3552H17.9303C11.0752 42.3552 5.50098 36.6703 5.50098 29.6798V15.5613C5.50098 14.4191 5.68825 13.2983 6.06048 12.2319C6.31712 11.4973 7.10551 11.1111 7.82223 11.3741C8.53896 11.6348 8.9135 12.4452 8.65918 13.1798C8.3933 13.9428 8.2592 14.7438 8.2592 15.5613V29.6822C8.2592 35.1111 12.5988 39.5282 17.9303 39.5282H20.6562C21.4192 39.5282 22.0365 40.1609 22.0365 40.9428C22.0365 41.7248 21.4192 42.3552 20.6562 42.3552Z" fill="url(#paint1_linear_712_13)"/>
<path d="M39.9446 48H16.5262C7.41461 48 0 40.4005 0 31.0592V15.5355C0 6.96919 6.79962 0 15.1552 0H20.7387C29.0504 0 35.813 6.9692 35.813 15.5332V24C35.813 24.782 35.1957 25.4147 34.4327 25.4147C33.6698 25.4147 33.0525 24.782 33.0525 24V15.5332C33.0525 8.52844 27.5268 2.82701 20.7364 2.82701H15.1552C8.31861 2.82701 2.75823 8.52607 2.75823 15.5332V31.0592C2.75823 38.8412 8.93591 45.1706 16.5262 45.1706H39.9423C40.7052 45.1706 41.3225 45.8033 41.3225 46.5853C41.3225 47.3649 40.7052 48 39.9446 48Z" fill="url(#paint2_linear_712_13)"/>
<path d="M28.9226 31.0616C28.1596 31.0616 27.5423 30.4289 27.5423 29.6469V15.2346C27.5423 11.4431 24.5182 8.47391 20.6571 8.47391H15.1476C14.4101 8.47391 13.661 8.6161 12.8541 8.90993C12.1374 9.1706 11.3467 8.78671 11.0924 8.04974C10.838 7.31278 11.2126 6.50472 11.9316 6.24406C13.0391 5.84121 14.091 5.64453 15.1476 5.64453H20.6571C26.0649 5.64453 30.3005 9.85543 30.3005 15.2322V29.6469C30.3028 30.4289 29.6855 31.0616 28.9226 31.0616Z" fill="url(#paint3_linear_712_13)"/>
<path d="M20.6644 31.0616C18.3778 31.0616 16.5259 29.1612 16.5259 26.8247V18.3531C16.5259 17.5711 17.1432 16.9384 17.9061 16.9384C18.6691 16.9384 19.2864 17.5711 19.2864 18.3531V26.8247C19.2864 27.6019 19.9014 28.2346 20.6574 28.2346C21.4227 28.2346 22.0377 27.6019 22.0377 26.8247V16.9479C22.0377 15.3887 20.8031 14.1185 19.2841 14.1185H16.5259C15.0069 14.1185 13.7723 15.3816 13.7723 16.9361V19.7631C13.7723 20.5451 13.155 21.1778 12.392 21.1778C11.629 21.1778 11.0117 20.5451 11.0117 19.7631V16.9361C11.0117 13.8223 13.4856 11.2915 16.5235 11.2915H19.2818C22.3221 11.2915 24.7936 13.8294 24.7936 16.9479V26.8247C24.7936 29.1612 22.9417 31.0616 20.6644 31.0616Z" fill="url(#paint4_linear_712_13)"/>
<path d="M28.9215 36.7085H19.2804C14.7212 36.7085 11.0127 32.9075 11.0127 28.2345C11.0127 27.4525 11.63 26.8198 12.393 26.8198C13.1559 26.8198 13.7732 27.4525 13.7732 28.2345C13.7732 31.3483 16.2448 33.8791 19.2828 33.8791H28.9238C29.6868 33.8791 30.3041 34.5118 30.3041 35.2938C30.3018 36.0757 29.6845 36.7085 28.9215 36.7085Z" fill="url(#paint5_linear_712_13)"/>
<path d="M12.3953 25.4121C12.3051 25.4121 12.2149 25.405 12.1248 25.3836C12.0346 25.3671 11.9491 25.3386 11.8658 25.3031C11.7826 25.2675 11.704 25.2272 11.63 25.1751C11.5514 25.123 11.482 25.0614 11.4173 24.9974C11.163 24.7367 11.0127 24.3694 11.0127 23.9998C11.0127 23.9073 11.0196 23.8149 11.0404 23.7225C11.0566 23.6348 11.0844 23.5424 11.119 23.4571C11.1537 23.3718 11.1977 23.2912 11.2439 23.2154C11.2948 23.1348 11.3549 23.0637 11.4173 22.9974C11.4797 22.9334 11.5514 22.8718 11.63 22.8197C11.7017 22.7723 11.7826 22.7272 11.8658 22.6917C11.9491 22.6562 12.0346 22.6325 12.1248 22.6111C12.3005 22.5756 12.4854 22.5756 12.6635 22.6111C12.7536 22.6301 12.8392 22.6562 12.9224 22.6917C13.0056 22.7272 13.0866 22.7723 13.1629 22.8197C13.2368 22.8718 13.3085 22.931 13.3709 22.9974C13.4334 23.0614 13.4935 23.1348 13.5443 23.2154C13.5952 23.2912 13.6345 23.3718 13.6692 23.4571C13.7039 23.5424 13.7316 23.6348 13.7478 23.7225C13.7663 23.8149 13.7755 23.9073 13.7755 23.9998C13.7755 24.0922 13.7686 24.1846 13.7478 24.2723C13.7316 24.3647 13.7039 24.4524 13.6692 24.5377C13.6345 24.623 13.5952 24.7059 13.5443 24.7841C13.4935 24.8623 13.4357 24.9334 13.3709 24.9974C13.3085 25.0614 13.2368 25.123 13.1629 25.1751C13.0889 25.2272 13.0056 25.2675 12.9224 25.3031C12.8392 25.3386 12.7536 25.3671 12.6635 25.3836C12.5756 25.405 12.4808 25.4121 12.3953 25.4121Z" fill="url(#paint6_linear_712_13)"/>
<path d="M45.4568 47.9975C45.3666 47.9975 45.2765 47.9904 45.1863 47.9691C45.0961 47.9525 45.0106 47.9241 44.9274 47.8885C44.8441 47.8553 44.7632 47.8127 44.6915 47.7606C44.6129 47.7084 44.5436 47.6468 44.4788 47.5828C44.4164 47.5189 44.3563 47.4454 44.3054 47.3696C44.2592 47.2937 44.2152 47.2084 44.1806 47.1231C44.1459 47.0378 44.1181 46.9501 44.102 46.8577C44.0835 46.77 44.0742 46.6776 44.0742 46.5852C44.0742 46.4928 44.0812 46.4004 44.102 46.308C44.1181 46.2203 44.1459 46.1279 44.1806 46.0426C44.2152 45.9572 44.2592 45.8767 44.3054 45.8008C44.3563 45.7203 44.4141 45.6492 44.4788 45.5828C44.5436 45.5165 44.6129 45.4572 44.6915 45.4051C44.7632 45.3577 44.8441 45.3127 44.9274 45.2772C45.0106 45.2416 45.0961 45.2155 45.1863 45.1966C45.362 45.161 45.547 45.161 45.725 45.1966C45.8152 45.2155 45.9007 45.2416 45.9839 45.2772C46.0672 45.3127 46.1481 45.3577 46.2244 45.4051C46.2984 45.4572 46.37 45.5165 46.4325 45.5828C46.4949 45.6468 46.555 45.7203 46.6059 45.8008C46.6521 45.8767 46.696 45.9572 46.7307 46.0426C46.7654 46.1302 46.7931 46.2203 46.8093 46.308C46.8278 46.4004 46.8371 46.4928 46.8371 46.5852C46.8371 46.6776 46.8301 46.77 46.8093 46.8577C46.7931 46.9501 46.7654 47.0378 46.7307 47.1231C46.696 47.2084 46.6521 47.2914 46.6059 47.3696C46.555 47.4454 46.4949 47.5189 46.4325 47.5828C46.37 47.6468 46.2984 47.7084 46.2244 47.7606C46.1504 47.8127 46.0672 47.8577 45.9839 47.8885C45.9007 47.9241 45.8152 47.9525 45.725 47.9691C45.6371 47.9904 45.5423 47.9975 45.4568 47.9975Z" fill="url(#paint7_linear_712_13)"/>
<defs>
<linearGradient id="paint0_linear_712_13" x1="30.2999" y1="52.8703" x2="30.2999" y2="-0.0764094" gradientUnits="userSpaceOnUse">
<stop stop-color="#00CCCC"/>
<stop offset="0.9982" stop-color="#00FF99"/>
</linearGradient>
<linearGradient id="paint1_linear_712_13" x1="13.7686" y1="52.8703" x2="13.7686" y2="-0.0764074" gradientUnits="userSpaceOnUse">
<stop stop-color="#00CCCC"/>
<stop offset="0.9982" stop-color="#00FF99"/>
</linearGradient>
<linearGradient id="paint2_linear_712_13" x1="20.6618" y1="52.8706" x2="20.6618" y2="-0.0761133" gradientUnits="userSpaceOnUse">
<stop stop-color="#00CCCC"/>
<stop offset="0.9982" stop-color="#00FF99"/>
</linearGradient>
<linearGradient id="paint3_linear_712_13" x1="20.6586" y1="52.8706" x2="20.6586" y2="-0.0761322" gradientUnits="userSpaceOnUse">
<stop stop-color="#00CCCC"/>
<stop offset="0.9982" stop-color="#00FF99"/>
</linearGradient>
<linearGradient id="paint4_linear_712_13" x1="17.9041" y1="52.8707" x2="17.9041" y2="-0.0760791" gradientUnits="userSpaceOnUse">
<stop stop-color="#00CCCC"/>
<stop offset="0.9982" stop-color="#00FF99"/>
</linearGradient>
<linearGradient id="paint5_linear_712_13" x1="20.6577" y1="52.8705" x2="20.6577" y2="-0.0762005" gradientUnits="userSpaceOnUse">
<stop stop-color="#00CCCC"/>
<stop offset="0.9982" stop-color="#00FF99"/>
</linearGradient>
<linearGradient id="paint6_linear_712_13" x1="12.3925" y1="52.8704" x2="12.3925" y2="-0.0763559" gradientUnits="userSpaceOnUse">
<stop stop-color="#00CCCC"/>
<stop offset="0.9982" stop-color="#00FF99"/>
</linearGradient>
<linearGradient id="paint7_linear_712_13" x1="45.454" y1="52.8705" x2="45.454" y2="-0.0762471" gradientUnits="userSpaceOnUse">
<stop stop-color="#00CCCC"/>
<stop offset="0.9982" stop-color="#00FF99"/>
</linearGradient>
</defs>
</svg>
